<svg xmlns="http://www.w3.org/2000/svg" viewBox="0 0 100 100"><path d="M66.6 45.7c3.4 0 6.5-1.3 9-3.7 4.8-5 4.8-12.8 0-17.7-2.5-2.4-5.6-3.7-9-3.7-3.3 0-6.5 1.3-9 3.7-4.8 5-4.8 12.8 0 17.7 2.5 2.4 5.7 3.7 9 3.7zm-6-18.6c1.6-1.5 3.7-2.4 6-2.4s4.5 1 6 2.5c3.4 3.4 3.4 9 0 12.2-1.5 1.6-3.7 2.5-6 2.5s-4.4-1-6-2.5c-3.4-3.3-3.4-8.8 0-12z"/><path d="M15.2 55.4l4.4 4.5c-3.2 3.5-5.5 8-6.5 12.3L9.6 87.6c0 .7 0 1.4.6 2 .4.3 1 .5 1.5.5h.4l15-3.5c4.6-1 9-3.4 12.6-6.6l4.8 4.6.2.4 10.8 10.7c.4.4 1 .6 1.4.6h.5c.7-.2 1.2-.7 1.4-1.4l9-30.4 14.2-14c5.2-5.4 8.7-12.5 9.6-20l3-23c0-.8-.3-1.4-.7-1.8-.6-.4-1.2-.7-1.8-.6l-23 3c-7.4.8-14.5 4.2-20 9.6L35.4 32 5 41.5c-.6.2-1 .8-1.2 1.4s0 1.3.5 1.8l10.3 10.4.4.2zm11 27.2l-12 2.8L17 73.2c1-3.7 2.8-7.4 5.5-10.5l6.5 6.6.3.3.4.3 7 7c-3 2.8-6.7 4.7-10.5 5.6zm29.7 8l-7-7 12.8-13-6 20zm-3.8-70c4.7-4.7 11-7.8 17.5-8.6l20.5-2.5L87.6 30c-.8 6.8-3.8 13-8.6 17.7l-33 33L33.6 68l19-19c.7-.8.7-2 0-2.8s-2-.8-3 0L31 65.4l-7-7-4.7-4.7 18.7-18.5s0-.2.2-.3L52 20.5zM29 38.2L16 51l-6.5-6.7 19.2-6z"/></svg>