<svg xmlns="http://www.w3.org/2000/svg" xmlns:xlink="http://www.w3.org/1999/xlink" version="1.1" x="0px" y="0px" viewBox="0 0 100 60" style="enable-background:new 0 0 100 60;" xml:space="preserve"><g style="" display="none"></g><g><path d="M86.795,39.928c0-6.461-5.256-11.717-11.717-11.717s-11.717,5.256-11.717,11.717s5.256,11.717,11.717,11.717   S86.795,46.389,86.795,39.928z M65.828,39.928c0-5.101,4.149-9.25,9.25-9.25s9.25,4.149,9.25,9.25s-4.149,9.25-9.25,9.25   S65.828,45.029,65.828,39.928z"/><path d="M36.639,39.928c0-6.461-5.256-11.717-11.717-11.717s-11.717,5.256-11.717,11.717s5.256,11.717,11.717,11.717   S36.639,46.389,36.639,39.928z M15.672,39.928c0-5.101,4.149-9.25,9.25-9.25s9.25,4.149,9.25,9.25s-4.149,9.25-9.25,9.25   S15.672,45.029,15.672,39.928z"/><path d="M78.476,54.728H71.68c-1.698,0-3.337,0.259-4.88,0.737c-3.434-2.892-7.859-4.643-12.689-4.643h-8.223   c-4.83,0-9.255,1.751-12.689,4.643c-1.543-0.478-3.182-0.737-4.88-0.737h-6.796C12.413,54.728,5,62.14,5,71.252v2.718   c0,0.096,0.013,0.189,0.014,0.285h2.467c-0.002-0.096-0.014-0.189-0.014-0.285v-2.718c0-7.75,6.306-14.057,14.058-14.057h6.796   c0.969,0,1.915,0.099,2.829,0.286c-3.096,3.486-4.993,8.057-4.993,13.075v3.289c0,0.139,0.018,0.273,0.021,0.411h2.467   c-0.003-0.138-0.021-0.272-0.021-0.411v-3.289c0-9.521,7.746-17.267,17.267-17.267h8.223c9.521,0,17.267,7.746,17.267,17.267v3.289   c0,0.139-0.018,0.273-0.021,0.411h2.467c0.003-0.138,0.021-0.272,0.021-0.411v-3.289c0-5.017-1.898-9.589-4.993-13.075   c0.914-0.187,1.86-0.286,2.829-0.286h6.796c7.751,0,14.058,6.306,14.058,14.057v2.718c0,0.096-0.013,0.19-0.014,0.285h2.467   C94.987,74.159,95,74.066,95,73.97v-2.718C95,62.14,87.587,54.728,78.476,54.728z"/><path d="M61.717,37.461c0-6.461-5.256-11.717-11.717-11.717s-11.717,5.256-11.717,11.717S43.539,49.178,50,49.178   S61.717,43.922,61.717,37.461z M40.75,37.461c0-5.101,4.149-9.25,9.25-9.25s9.25,4.149,9.25,9.25s-4.149,9.25-9.25,9.25   S40.75,42.562,40.75,37.461z"/></g></svg>