<svg xmlns="http://www.w3.org/2000/svg" viewBox="0 0 100 100"><path d="M96.8 33.7v-.5h-.2c0-.2 0-.4-.2-.5L87.6 23l-6.4-7.3c-.4-.5-1-.7-1.5-.7h-60c-.6 0-1 .2-1.5.7l-15 17c-.2 0-.2.3-.3.4v.2h-.2v.5H3l-.2.5v.5c0 .3.2.4.3.6l45.3 53.5c.3.5 1 .7 1.5.7.6 0 1-.2 1.5-.7l45-53.5.4-.5v-.5h.2c0-.3 0-.4-.2-.6zM54.2 19h21L64.7 30.5 54.2 19zm6.4 13h-22l11-12 11 12zm-26-1.5L24 19h21.2L34.6 30.5zM19.6 20l11 12H9l10.7-12zM62 36L49.7 79.7 37.4 36H62zm17.7-16l5 5.5 5.6 6.5H68.7l11-12zM33.3 36l12.2 43.4L9 36h24.3zM54 79.4L66 36h24.6L54 79.4z"/></svg>